<mxfile host="app.diagrams.net" agent="Mozilla/5.0 (Macintosh; Intel Mac OS X 10_15_7) AppleWebKit/537.36 (KHTML, like Gecko) Chrome/132.0.0.0 Safari/537.36 Edg/132.0.0.0" version="26.0.10" pages="3">
  <diagram name="Page-1" id="GgB53-DjtFnzY9Ocax-z">
    <mxGraphModel dx="666" dy="590" grid="0" gridSize="10" guides="1" tooltips="1" connect="1" arrows="1" fold="1" page="0" pageScale="1" pageWidth="850" pageHeight="1100" math="0" shadow="0">
      <root>
        <mxCell id="0" />
        <mxCell id="1" parent="0" />
        <mxCell id="TY2aqIeVDA-mtXf-FRhq-2" value="" style="rounded=0;whiteSpace=wrap;html=1;" vertex="1" parent="1">
          <mxGeometry x="120" y="15" width="160" height="347" as="geometry" />
        </mxCell>
        <mxCell id="TY2aqIeVDA-mtXf-FRhq-3" value="" style="rounded=1;whiteSpace=wrap;html=1;" vertex="1" parent="1">
          <mxGeometry x="140" y="170" width="120" height="60" as="geometry" />
        </mxCell>
        <mxCell id="TY2aqIeVDA-mtXf-FRhq-4" value="" style="rounded=1;whiteSpace=wrap;html=1;" vertex="1" parent="1">
          <mxGeometry x="140" y="237" width="120" height="60" as="geometry" />
        </mxCell>
        <mxCell id="TY2aqIeVDA-mtXf-FRhq-5" value="comments" style="text;strokeColor=none;fillColor=none;html=1;align=center;verticalAlign=middle;whiteSpace=wrap;rounded=0;fontSize=16;" vertex="1" parent="1">
          <mxGeometry x="170" y="114" width="60" height="30" as="geometry" />
        </mxCell>
      </root>
    </mxGraphModel>
  </diagram>
  <diagram id="lxMIa2jWr24HJMXi93cy" name="Page-2">
    <mxGraphModel dx="666" dy="590" grid="0" gridSize="10" guides="1" tooltips="1" connect="1" arrows="1" fold="1" page="0" pageScale="1" pageWidth="850" pageHeight="1100" math="0" shadow="0">
      <root>
        <mxCell id="0" />
        <mxCell id="1" parent="0" />
        <mxCell id="X4KKCRInXqzfT2NcODOT-1" value="" style="rounded=0;whiteSpace=wrap;html=1;" vertex="1" parent="1">
          <mxGeometry x="137" y="29" width="160" height="347" as="geometry" />
        </mxCell>
        <mxCell id="X4KKCRInXqzfT2NcODOT-2" value="" style="whiteSpace=wrap;html=1;aspect=fixed;" vertex="1" parent="1">
          <mxGeometry x="147" y="69" width="140" height="140" as="geometry" />
        </mxCell>
        <mxCell id="X4KKCRInXqzfT2NcODOT-3" value="" style="verticalLabelPosition=bottom;verticalAlign=top;html=1;shape=mxgraph.basic.star" vertex="1" parent="1">
          <mxGeometry x="245" y="214" width="46" height="33" as="geometry" />
        </mxCell>
        <mxCell id="X4KKCRInXqzfT2NcODOT-5" value="likes" style="text;strokeColor=none;fillColor=none;html=1;align=center;verticalAlign=middle;whiteSpace=wrap;rounded=0;fontSize=16;" vertex="1" parent="1">
          <mxGeometry x="238" y="247" width="60" height="30" as="geometry" />
        </mxCell>
      </root>
    </mxGraphModel>
  </diagram>
  <diagram id="Bk1phyei_n_aoQGpWTbs" name="Page-3">
    <mxGraphModel dx="666" dy="590" grid="0" gridSize="10" guides="1" tooltips="1" connect="1" arrows="1" fold="1" page="0" pageScale="1" pageWidth="850" pageHeight="1100" math="0" shadow="0">
      <root>
        <mxCell id="0" />
        <mxCell id="1" parent="0" />
        <mxCell id="7-IzfPgMGQpb-lIJrMyh-1" value="" style="rounded=0;whiteSpace=wrap;html=1;" vertex="1" parent="1">
          <mxGeometry x="113" y="34" width="160" height="347" as="geometry" />
        </mxCell>
        <mxCell id="7-IzfPgMGQpb-lIJrMyh-2" value="" style="ellipse;whiteSpace=wrap;html=1;aspect=fixed;" vertex="1" parent="1">
          <mxGeometry x="129.5" y="75" width="127" height="127" as="geometry" />
        </mxCell>
        <mxCell id="7-IzfPgMGQpb-lIJrMyh-3" value="" style="shape=stencil(lVrZchw3DPwavbJ4H8+O8x+ushypokguWbn+Ps1scbRsDnvlt9XutAgSQKMBzl349OPhy/f7O29/vL2+/H7/9+PXt4e78Mud94/PD/evj2/4dBc+34VP315e7397ffnz+evl7+9f+pP90x8vf/X/8M8FF5LxraO8/ffyjasm2/+/+fUCeHp8vgYE4zMDigD4ZrxlQIsCkExKE8BbE6sAeJPqDPAmiBVcM67MgGiCWMGl8fMBKMaJTbtgbJwBzWQnANa4GRD8MHIHyLNJIUtAM42eb6ZmuYCd/RbhenFIONR5gZhNFVuups7/P2HFIJ+fTyjBHuFlPD87OWUTk3x+zoRspY8RxbP9ORqnXRzmDeRqrPKAM2G2qPiRS+cAb3KYAWlsahvXs0mlGq+irprkJkCF0wTAu0EOBwDfeAHI40wOAI5V7AFxZ+dN12SKiFMklp83XYs8ViRWnCOpItZFJEXLqdCO9D4HBFNmTzcnYykWE9ICEMeaHLPwjRVSNDn+1Ap1sMPVpr1wXHYmNz7WKAggpxGb144TnkZ+0SkhNKLYdMEWKfiCqcKkEgelXIe3iKVSTJv3UNqIrnOWsSbNJuFfBAUI7GkYqUzCmTiiGTeo9hyQeQ/54MJzwMIa3ZUilhAIzK1uhON57XFcoFORzNcBVB3iSNotYD4llKsqSACA6CcA6mHSJsXZ01EXOOQXVUSUdFVQcKx5XgHyryrHlRH9B+AwchcalEAok7KIgvnmFSDFilIN1jRSh16yBtKF1CHkXxaO6+kyOw5Vz2rWoNBw2QRFZDiTedMoxKqK5tWkMFLqHGCH9DoAzjRhEtKFTYJcUXQfWE82WeKQLaRN6hCwuwpHfUaTyYBcSWyP2jBqdLJ8QlakJ1RAIy972TSgU7IzxbijzJ8Dlh4AYaFqNFZwiU1SJRfZS5oYK6i2BPItzZtGL6ZOCT/XpZ+sSu8tceHKSKftCsspNcFJ2EMkk+LgwW0/SSYFyRg+ME32/k9telEycJzSGVDFpJWwglJj6E+JJgFQRb23M45PSSWQb6yKwXqqdwAgEaBIqu8ZTyY1venKJRfBoojYF9asCBavAIlPyd9oZyIX9Q7QsWQXk4JOUTbJyj4XAOalph1nWTbAcVUNZOzw61VoqBr9fuofLIhIUWa+MAJ+d6xhIWOl97oMWeheJlBe9uCHTt4FHyn7XtQVL9WFKqNJOqdPAMoPYeGlMATd7pTyDGhyetgtmjM0y6qOgkUqI8rYXos0fCDSs3fqJKykz+JRCN6f92oSkEfxG89bmWqrSjqmcLsunfS2HseksqSB1PPZ8fl4WRTQ19X5fJK0H0q4zvZnObktnpnlhjTPgzvf4zOKeEAzziLvUA+7/oWFdhwEvuuQaG57o2z2ociiqFTJaeiHZmULp6kBQFuoDl5QE7SWeaiHPJXNc2WT0HgmZVLjlgqtrUo0ANocqL15FpHaAdRt6/bc2WUg3icAcoK+ItIto3hmXSUf4WAT8WkYM6+d69pMMLnoa4PEYrhYqdraMsssR6u4i1dqPUuWJLNOh+qNST1YjwBeNp81DrlyPThUcw+3rFBkc1gqZzV2paRqWW7FmpO8URyPJuEZtem8qGf4XvFGjhxLrcgpHaqJpxWqFMPpYPcD0Ibg+OjU+mD0D87Fr7L2o6N3vUSfTKw2iWDqF3ONAeoCNCw1pR3Kbzc4YMCRItvRBHkuSz7u96M0vomS8XsPTZs+7lC3bcxyQaEaJTQtlEFIuSQKaa/kxAJlTCs3hM9qFbShQqOO8c7xfJA1KJ3cvqnxTWAKALOqea/nDh3UHdWF43LfaKUcW29As6SkpX5mL3PTMl2AQFTQWQ4h8Iea6VvuzZO+lliyJlZ5/2S5KMQkc8ANWjied8ODm+fJv6HofpDVedBjZ89Dp84bagjL8dDnXGoObgoNU6I8z8Y01yNcnafny+cesiIgQBEs/+FhtUJdmv48BtfbScccQ1iz6NdneJIfZFKevKDjpa49eQUoSP118pJR0DfuabwhdA3QFTAt8yAVqQh8SuU+H1UrFFba8IO6hwWgLgD13lNYroZdkqFxAsiyvTgxKWtPr5suMrxPjrVILX/iuKqVyBoaVXLYz7/hdhuAD+8v1H17fHq6vI93/Tu/gIevLi/vhc//AQ==);lineShape=1;strokeColor=default;" vertex="1" parent="1">
          <mxGeometry x="158.5389272955166" y="91.62173244749545" width="77.81235328924299" height="77.83855576885242" as="geometry" />
        </mxCell>
        <mxCell id="7-IzfPgMGQpb-lIJrMyh-4" value="" style="shape=stencil(fZbdcgIhDIWfZm8zQAg/17Z9j85U606tdqz9e/tmZ0c0uJ47xP0I5JwEBl59bp8/1kNwn6fj4W39M76ctgM/DCGM++36OJ50NPDjwKvN4bh+PR6+9i/z74/n6ctp9H74nlb4nbmSKZeJCu5vngmZ6jzzNAO7cX8FVKEsBuBKrgKg9oAE8gkCbLeUhEoEQKSUDZDLeWYRKIl8MEDRmHwfyBrBG6Amyu4+kDxxMoB3jhwgYu7TVAsVkFcWCs4CTBEoF4RctKeOxHIf8IXYpikHikAIf+MNUW94AGSSaoAoFIE3AlOyeWU+p2E5S9yfQZcQILVuQOwZdJNoS9Ls3wA5u2XZTIHECqeJ9kDpSaauRiNVcAY1QhdBzeLBli5WazpkSsBLV25uRaqWRyFawTQzRRIQYirJzq5atkBqLfouwqUxLBepthWb10vrWZY6UOAeyKCCtDV625mm9gmUC4Wc3VLJMMIE1BsA2FW9JraVlQB7n3c9oMKhCLEvIM1zBPZ25/umNQ1tVEC2G+fFCC8g398O2hNQuQlVu752DBfA+q0ptnqO5JFmeuIuo9DY7KjY71UxdJV4EntifPWorW++R/dC4t7V3DlIB5cHx2bc7eb3yvX//QNFp+bHDT/+Aw==);lineShape=1;strokeColor=default;" vertex="1" parent="1">
          <mxGeometry x="181.86796084247567" y="122.87531245851915" width="4.672539772115556" height="4.665236216357698" as="geometry" />
        </mxCell>
        <mxCell id="7-IzfPgMGQpb-lIJrMyh-5" value="" style="shape=stencil(fZbdcgIhDIWfZm8zQAg/17Z9j85U606tdqz9e/tmZ0c0uJ47xP0I5JwEBl59bp8/1kNwn6fj4W39M76ctgM/DCGM++36OJ50NPDjwKvN4bh+PR6+9i/z74/n6ctp9H74nlb4nbmSKZeJCu5vngmZ6jzzNAO7cX8FVKEsBuBKrgKg9oAE8gkCbLeUhEoEQKSUDZDLeWYRKIl8MEDRmHwfyBrBG6Amyu4+kDxxMoB3jhwgYu7TVAsVkFcWCs4CTBEoF4RctKeOxHIf8IXYpikHikAIf+MNUW94AGSSaoAoFIE3AlOyeWU+p2E5S9yfQZcQILVuQOwZdJNoS9Ls3wA5u2XZTIHECqeJ9kDpSaauRiNVcAY1QhdBzeLBli5WazpkSsBLV25uRaqWRyFawTQzRRIQYirJzq5atkBqLfouwqUxLBepthWb10vrWZY6UOAeyKCCtDV625mm9gmUC4Wc3VLJMMIE1BsA2FW9JraVlQB7n3c9oMKhCLEvIM1zBPZ25/umNQ1tVEC2G+fFCC8g398O2hNQuQlVu752DBfA+q0ptnqO5JFmeuIuo9DY7KjY71UxdJV4EntifPWorW++R/dC4t7V3DlIB5cHx2bc7eb3yvX//QNFp+bHDT/+Aw==);lineShape=1;strokeColor=default;" vertex="1" parent="1">
          <mxGeometry x="210.86796084247567" y="119.87531245851915" width="4.672539772115556" height="4.665236216357698" as="geometry" />
        </mxCell>
        <mxCell id="7-IzfPgMGQpb-lIJrMyh-6" value="" style="shape=stencil(lVfZktpADPwav6pGc8/zZvMfW7VsoEJgiyXX30cTZwgSdlO8GaP26Gi1RlN4+ti+vG8m7z7Op+PXzc/d63k7hU+T97vDdnPaneVpCs9TeHo7njZfTsfvh9f59/tLt+xP344/+hd+zbhGOXaQd7/nFz4S+79vPs/2+93hyp49xaoBjWIGgEapKUBI1Nw6wGdy2qXIlIBLwZPPGpBHVMuAOkIcgOSpgBNioKyDzgwBiYlZAxIlEHQq1HTQuVIFac2RWrKAf4leBBSm2iwgVAAolIMNGsVQHTkNkLz5AADikg6aMyUGAE9BF44ZnyCFM0HjEBJVHYKnCupcK0X9fUcJ5LQxRTb2DvjTInlNPCFWAvaZqtPNRg0ktFUq2l54CEjUGhUdr+hBAzQVgKEpC+tQxI1YN7OEgPSllUGZC6BQRTVIxEXniKHkNWGdUTA/aLLMClHE9BBA9Oohl2qkEB4JWjrHKFhPK2BSvZGLO4WTE5yptB+1X+tN1t0v3EMhJDsXMLerEEMz6U7vOIo6p3d6M1BIxh72vsw1LV6YFNKbbBQeiqN0TtL+d3EEY5DdJcBr/UXDfxmBnTJzTaZ/RApTRxIvQ0TygNNqbjDZj+G7Vjevmd0nHciTdKfXCiMNHkAMfRDqyonmNHCCzOZmms1h8sn4NxeMLs1lHZAkTTeACACSduNTJyRwKUq7axGT6VhAIUK23BBJCAjgiDXDy+XM5atkGNP7wo1CEbVEsfNc7jzIJXYjiZerZBpOLsdgZVXuSEiV5HgtYqFAh5wts/QbtjciE8Ig74q9EQApSob2Ztj6Om7ra/5rf/o6gApgL1SyvziQf1lftP/9DdoVrBz1ioDvR6omXgf7MhO3G3t0K79Zv8Qf8P16k0+PBfvBffC+vTz8Xz7fdvv9vLte/2+XVXk1L7rh+Q8=);lineShape=1;strokeColor=default;" vertex="1" parent="1">
          <mxGeometry x="181.94046915727165" y="131.6821888563485" width="37.4608217081543" height="20.569352491538893" as="geometry" />
        </mxCell>
        <mxCell id="7-IzfPgMGQpb-lIJrMyh-7" value="" style="shape=stencil(lVfbchsxCP2afWUk0AU9p+l/ZCZO7alrZxynbf4+bHe0XeQ1yr5tZE5AcDiggR7e9k+vuwHd2/Vy/rn7c3i+7gf6NiAeTvvd5XCVr4EeB3p4OV92Py7n99Pz9Pfr02g5fv06/x7/w98JVwIEHlHoPqaTBD78O/g+2R8Pp6V9BHTK3nvgbAAyOK8A6CCTAWAIQQMYCO8DvHPgdEyUIBqI4iBkBQgRfDEAHkJUgIgQ3X0AJ2AdUnJA0QD4mpQZkCEaIeVSA6iALD6NvGYPURdCbuWMkFKBpAtRCIo3AAEQNSDVRK8CYgRuAGwCpEzUACRII0tErYcFW1YRiJU6CxfEBv0QUpPXDGwAhGqNgwjJuLQDbsqAUEx7bOKRGxv2BKTtOQMa8ZeW2hzM+/rSKgBTTcF6CQoUrUmMVXXWaSHUjlsAY/duCilJe+KWSyduq9DJqrQn6bSOZbMArrJmyQsrpARUthAvMpQmJJvZgdvCdXqHMiQN6LanjKcbF5YC+Ni66GjMXKYvitg8/r6okjfDapRhY+Ku2huyLUxNei5wPbmnX6SbJ3ccBPDaQ5rbab1msd0xOtMT50k2z+dQy77Oo5tR1dkARDG87oXOkhFE5XVInTVGIm7WmM6iNK4gug72Jib2DfECJKPOIbfNSYBW94sg6TKjydNxmGvF66wXvk6lau+qw3vyxbGxt5QiI+SyxZ4hpg3xyMRoSGrfl7kVFjuf0uZJx2PXS2Qnb+HD5s2/ay8f/58ZL4fjcXqlLH9vnyVyND1p6PET);lineShape=1;strokeColor=default;" vertex="1" parent="1">
          <mxGeometry x="189.85096621671266" y="167.8436069740768" width="8.807294812689406" height="35.115780142087715" as="geometry" />
        </mxCell>
        <mxCell id="7-IzfPgMGQpb-lIJrMyh-8" value="" style="shape=stencil(lVfLctswDPwaXTEkwOc5Tf8jM3FqT1074zht8/eBqqESQuZOc5OlXZMEdhfSJHcv+4fn3cTu5Xo5/9z9OTxe95N8m5gPp/3ucrjq1ST3k9w9nS+7H5fz6+lx+f38MCPnq1/n3/M//F14NZALM4vd23KHE0X5d+f7QjgeTp8IJVMyhEIpjwm5UskdQZgCA4IjqT0hUPJjQqzEqSMET1wBYX28EnRLYUwIjqpZoZJPY4KIXSFmCm5M4EDSlzV7qmBL7MjFjlCYPCirr3ZLpRCDLflMsV+hCgVQVh/JSU/IsKxej1h6Qm3qui0+ymLxBeBj082KL03ut4tq26z2QFL1mx5UEiAL7VlvhSJN6wO8N6LI5IE5VdcbEXEEMiXu95MSCcAncq7Ha8UAXk3S1yd56ALP1vpKKCBcVHKWoEYCWaGiLtwTCgXQMrVNMDUVKqBnN5rsmi9GKySjokSMCKU9XmWqVUJniC1KVkLCVZKNkysMF7VhbzTvXNPKQElbZ6IjCOW+qDW2JQdOiNWWyBfkNO6TqEQYXc46Qcccg/18Fe+dnZohtrAcicKOWUcZZV1qMl4HOVMEK8jG/aorD8wZsnWCnsoDUURN596clRywmqYV986JMO6yqs7Mfahq1UDq96PxheKO7YHXLLiNV1VHiwf1Uc1LMfiM8NriHs9toNzGl/ZS81EfFERzKPS5kuA4Vnw285UKCjq3sc2cTCiH1j9cCaoRTDAj0K9vk6MaSd8zFQWcgblpbCUEOMS1y2YezO8xwAZffof/D4JefHwyPB2Ox+WL4/Nz+4mht5bPE7l/Bw==);lineShape=1;strokeColor=default;" vertex="1" parent="1">
          <mxGeometry x="162.86324825341592" y="178.83553579090312" width="31.311553549950872" height="16.278529462889992" as="geometry" />
        </mxCell>
        <mxCell id="7-IzfPgMGQpb-lIJrMyh-9" value="" style="shape=stencil(lVdJchsxDHzNXFEkAG5nx/mHqyxHqiiSS1a23weTKSYCOAPZtxHVIIlubJzo4W3/9LqbMLxdL+evu5+H5+t+ok8T4uG0310OV/ma6HGih5fzZfflcv5+el5+vz7NyPnr2/nHvMOvxS5DCrMRht/LQoKW/i58XuDHw+kGHgPEavBMDr5BJIUnaLiNxwqk90fIYRtPGWpS+Ai5bOM5QWgKH6DWbXxiQDT44NwnM1A2/nLcxheGEPX9EZpDaI3AmiAKnbJ1gwpVK0zNlaBlIC1Zxr6y7oNorDktGZBdg2JOqJCcqBOnSbOUfZkrQdEypNy3WDeQONInJILg+NAkEcwJCOhERpNASPYEL/RGHVKB2hwDIdGwJCc4wrVmWSoRgkOrGDTWBrXn35ZB0AZCNHkGBaJmqWGP33UDBi7aoHQa1g0ioE6gGPycrgVa/JgFQ8GPXKqi5UncLo7WNVie7hArOYfaYJbOT1LW4TcHR3avlDWxd8JPnK4mhfwArwnKmEJeGZDwMyl0J0nRtp+5DHjxKu1PCzcXGq+6lp70t6XMKwOig2ZpLpaODjfBeVuP3aa+auEFR4VsSr40AUeJgsD6hJz6ZLDeSMkSy1J8HLfHTs2itXPCOApw7M37nbMGB1eJcZiR1ps/Ni1Vt22N49h8SW8+seOe4NGJPrYFn5JbNcgGKzEkB4+2ixL2HdYdhqhLMf6bJVbxYRgnM7BTYoZEkBs25/4DXiREd39znyg1zdl/8FfGw+ToO/Ap9DhpOchVel6/Lxqk1jnwbOcR/21x9ykiH/+fMS+H43F5Bd3+b589srQ8mejxDw==);lineShape=1;strokeColor=default;" vertex="1" parent="1">
          <mxGeometry x="196.9645520019617" y="178.14439083064656" width="31.291287434829655" height="13.523782241150798" as="geometry" />
        </mxCell>
        <mxCell id="7-IzfPgMGQpb-lIJrMyh-10" value="user" style="text;strokeColor=none;fillColor=none;html=1;align=center;verticalAlign=middle;whiteSpace=wrap;rounded=0;fontSize=16;" vertex="1" parent="1">
          <mxGeometry x="164.25" y="223" width="60" height="30" as="geometry" />
        </mxCell>
        <mxCell id="7-IzfPgMGQpb-lIJrMyh-11" value="" style="shape=stencil(fZbdcgIhDIWfZm8zQAg/17Z9j85U606tdqz9e/tmZ0c0uJ47xP0I5JwEBl59bp8/1kNwn6fj4W39M76ctgM/DCGM++36OJ50NPDjwKvN4bh+PR6+9i/z74/n6ctp9H74nlb4nbmSKZeJCu5vngmZ6jzzNAO7cX8FVKEsBuBKrgKg9oAE8gkCbLeUhEoEQKSUDZDLeWYRKIl8MEDRmHwfyBrBG6Amyu4+kDxxMoB3jhwgYu7TVAsVkFcWCs4CTBEoF4RctKeOxHIf8IXYpikHikAIf+MNUW94AGSSaoAoFIE3AlOyeWU+p2E5S9yfQZcQILVuQOwZdJNoS9Ls3wA5u2XZTIHECqeJ9kDpSaauRiNVcAY1QhdBzeLBli5WazpkSsBLV25uRaqWRyFawTQzRRIQYirJzq5atkBqLfouwqUxLBepthWb10vrWZY6UOAeyKCCtDV625mm9gmUC4Wc3VLJMMIE1BsA2FW9JraVlQB7n3c9oMKhCLEvIM1zBPZ25/umNQ1tVEC2G+fFCC8g398O2hNQuQlVu752DBfA+q0ptnqO5JFmeuIuo9DY7KjY71UxdJV4EntifPWorW++R/dC4t7V3DlIB5cHx2bc7eb3yvX//QNFp+bHDT/+Aw==);lineShape=1;strokeColor=default;" vertex="1" parent="1">
          <mxGeometry x="392.86796084247567" y="106.87531245851915" width="4.672539772115442" height="4.665236216357698" as="geometry" />
        </mxCell>
      </root>
    </mxGraphModel>
  </diagram>
</mxfile>
